<svg width="1016" height="197" viewBox="0 0 1016 197" fill="none" xmlns="http://www.w3.org/2000/svg">
<path d="M134.835 100.257C126.049 74.2704 103.577 55.8671 69.4519 55.8671C31.073 55.8671 0 87.4025 0 126.429C0 165.455 31.073 196.99 69.4519 196.99C105.981 196.99 127.714 177.847 135.575 151.028L93.4966 138.359C89.9824 147.791 82.1216 154.358 72.1339 154.358C58.262 154.358 46.9795 141.873 46.9795 126.429C46.9795 110.985 58.262 98.5 72.1339 98.5C82.0291 98.5 89.7049 104.789 93.3116 114.037L134.835 100.257Z" fill="white"/>
<path d="M214.922 55.8671C175.618 55.8671 143.713 87.4025 143.713 126.429C143.713 165.455 175.618 196.99 214.922 196.99C256.723 196.99 286.131 165.455 286.131 126.429C286.131 87.4025 257.462 55.8671 214.922 55.8671ZM215.199 154.358C201.512 154.358 190.507 141.873 190.507 126.429C190.507 110.985 201.605 98.5 215.199 98.5C228.886 98.5 239.891 110.985 239.891 126.429C239.891 141.873 228.886 154.358 215.199 154.358Z" fill="white"/>
<path d="M379.628 56.6069C349.664 56.6069 341.434 74.8253 341.434 74.8253V59.4737H296.859V192.459H344.023V114.499C344.023 106.453 350.774 98.1301 361.409 98.1301C368.622 98.1301 377.963 103.124 377.963 118.198V192.551H425.127V113.112C425.22 67.9818 401.823 56.6069 379.628 56.6069Z" fill="white"/>
<path d="M534.53 0.00952148V70.9411C526.67 62.0631 515.757 56.8843 501.145 56.8843C466.096 56.8843 437.705 87.8649 437.705 126.151C437.705 164.438 466.096 195.418 501.145 195.418C517.052 195.418 528.612 188.852 536.473 178.125V192.551H581.048V0.00952148H534.53ZM510.393 153.71C494.302 153.71 485.516 141.225 485.516 125.689C485.516 110.245 494.302 97.6677 510.393 97.6677C526.207 97.6677 535.27 110.06 535.27 125.689C535.27 142.983 523.71 153.71 510.393 153.71Z" fill="white"/>
<path d="M677.318 59.4737V137.434C677.318 145.479 670.567 153.803 659.932 153.803C652.719 153.803 643.378 148.809 643.378 133.735V59.3812H596.214V138.821C596.214 183.858 623.68 195.233 641.899 195.233C671.122 195.233 676.301 184.228 680.648 178.864V192.459H724.575V192.366V59.4737H677.318Z" fill="white"/>
<path d="M1015.7 101.922H972.697V59.0113H925.533V101.922H882.622V149.179H925.533V192.089H972.697V149.179H1015.7V101.922Z" fill="white"/>
<path d="M868.75 126.429C868.75 87.495 849.515 55.8671 802.073 55.8671C765.266 55.8671 735.395 87.4025 735.395 126.429C735.395 165.455 765.266 196.99 802.073 196.99C839.065 196.99 857.098 181.084 864.496 157.964L828.799 145.942C825.1 153.988 816.315 159.536 806.142 159.536C789.866 159.536 781.542 149.549 781.542 137.249H868.38C868.565 133.735 868.75 130.128 868.75 126.429ZM781.45 110.8C781.45 100.072 791.068 91.2866 802.998 91.2866C817.239 91.2866 824.545 99.9797 824.545 110.8H781.45Z" fill="white"/>
</svg>
